<svg xmlns="http://www.w3.org/2000/svg" >
  <rect width="100%" height="100%" fill="white"/>
  <defs>
    <marker id="arrowhead" markerWidth="6" markerHeight="6" refX="3" refY="1.5" orient="auto">
      <polygon points="0 0, 2 1.5, 0 3" fill="black" />
    </marker>
  </defs>
  <g transform="translate(0, 0)">
    <!-- Layer 0 -->
    <g id="frame0">
       <text x="10" y="10">Layer 0</text>
       <g transform="translate(15, 20) scale(5)">
        <line x1="20" y1="0" x2="20" y2="20" stroke="#000" stroke-width="1" marker-end="url(#arrowhead)"/>
        <circle cx="20" cy="0" r="1" />
        <line x1="20" y1="20" x2="0" y2="20" stroke="#000" stroke-width="1" marker-end="url(#arrowhead)"/>
        <circle cx="20" cy="20" r="1" />
        <line x1="0" y1="20" x2="0" y2="0" stroke="#000" stroke-width="1" marker-end="url(#arrowhead)"/>
        <circle cx="0" cy="20" r="1" />
        <line x1="0" y1="0" x2="20" y2="0" stroke="#000" stroke-width="1" marker-end="url(#arrowhead)"/>
        <circle cx="0" cy="0" r="1" />
     </g>
      <animate attributeName="visibility" values="visible; hidden; hidden; hidden; hidden; hidden; hidden; hidden; hidden; hidden; hidden; hidden; hidden; hidden; hidden; hidden; hidden; hidden; hidden; hidden; hidden" dur="1s" repeatCount="indefinite" />
    </g>
    <!-- Layer 1 -->
    <g id="frame1">
       <text x="10" y="10">Layer 1</text>
       <g transform="translate(15, 20) scale(5)">
        <line x1="0" y1="20" x2="19" y2="20" stroke="#000" stroke-width="1" marker-end="url(#arrowhead)"/>
        <circle cx="0" cy="20" r="1" />
        <line x1="19" y1="20" x2="20" y2="20" stroke="#000" stroke-width="1" marker-end="url(#arrowhead)"/>
        <circle cx="19" cy="20" r="1" />
        <line x1="0" y1="1" x2="0" y2="20" stroke="#000" stroke-width="1" marker-end="url(#arrowhead)"/>
        <circle cx="0" cy="1" r="1" />
        <line x1="20" y1="0" x2="1" y2="0" stroke="#000" stroke-width="1" marker-end="url(#arrowhead)"/>
        <circle cx="20" cy="0" r="1" />
        <line x1="20" y1="20" x2="20" y2="19" stroke="#000" stroke-width="1" marker-end="url(#arrowhead)"/>
        <circle cx="20" cy="20" r="1" />
        <line x1="0" y1="0" x2="0" y2="1" stroke="#000" stroke-width="1" marker-end="url(#arrowhead)"/>
        <circle cx="0" cy="0" r="1" />
        <line x1="20" y1="19" x2="20" y2="0" stroke="#000" stroke-width="1" marker-end="url(#arrowhead)"/>
        <circle cx="20" cy="19" r="1" />
        <line x1="1" y1="0" x2="0" y2="0" stroke="#000" stroke-width="1" marker-end="url(#arrowhead)"/>
        <circle cx="1" cy="0" r="1" />
     </g>
      <animate attributeName="visibility" values="hidden; visible; hidden; hidden; hidden; hidden; hidden; hidden; hidden; hidden; hidden; hidden; hidden; hidden; hidden; hidden; hidden; hidden; hidden; hidden; hidden" dur="1s" repeatCount="indefinite" />
    </g>
    <!-- Layer 2 -->
    <g id="frame2">
       <text x="10" y="10">Layer 2</text>
       <g transform="translate(15, 20) scale(5)">
        <line x1="0" y1="2" x2="0" y2="20" stroke="#000" stroke-width="1" marker-end="url(#arrowhead)"/>
        <circle cx="0" cy="2" r="1" />
        <line x1="20" y1="18" x2="20" y2="0" stroke="#000" stroke-width="1" marker-end="url(#arrowhead)"/>
        <circle cx="20" cy="18" r="1" />
        <line x1="0" y1="0" x2="0" y2="2" stroke="#000" stroke-width="1" marker-end="url(#arrowhead)"/>
        <circle cx="0" cy="0" r="1" />
        <line x1="20" y1="20" x2="20" y2="18" stroke="#000" stroke-width="1" marker-end="url(#arrowhead)"/>
        <circle cx="20" cy="20" r="1" />
        <line x1="18" y1="20" x2="20" y2="20" stroke="#000" stroke-width="1" marker-end="url(#arrowhead)"/>
        <circle cx="18" cy="20" r="1" />
        <line x1="20" y1="0" x2="2" y2="0" stroke="#000" stroke-width="1" marker-end="url(#arrowhead)"/>
        <circle cx="20" cy="0" r="1" />
        <line x1="0" y1="20" x2="18" y2="20" stroke="#000" stroke-width="1" marker-end="url(#arrowhead)"/>
        <circle cx="0" cy="20" r="1" />
        <line x1="2" y1="0" x2="0" y2="0" stroke="#000" stroke-width="1" marker-end="url(#arrowhead)"/>
        <circle cx="2" cy="0" r="1" />
     </g>
      <animate attributeName="visibility" values="hidden; hidden; visible; hidden; hidden; hidden; hidden; hidden; hidden; hidden; hidden; hidden; hidden; hidden; hidden; hidden; hidden; hidden; hidden; hidden; hidden" dur="1s" repeatCount="indefinite" />
    </g>
    <!-- Layer 3 -->
    <g id="frame3">
       <text x="10" y="10">Layer 3</text>
       <g transform="translate(15, 20) scale(5)">
        <line x1="0" y1="3" x2="0" y2="20" stroke="#000" stroke-width="1" marker-end="url(#arrowhead)"/>
        <circle cx="0" cy="3" r="1" />
        <line x1="0" y1="20" x2="17" y2="20" stroke="#000" stroke-width="1" marker-end="url(#arrowhead)"/>
        <circle cx="0" cy="20" r="1" />
        <line x1="20" y1="0" x2="3" y2="0" stroke="#000" stroke-width="1" marker-end="url(#arrowhead)"/>
        <circle cx="20" cy="0" r="1" />
        <line x1="20" y1="17" x2="20" y2="0" stroke="#000" stroke-width="1" marker-end="url(#arrowhead)"/>
        <circle cx="20" cy="17" r="1" />
        <line x1="0" y1="0" x2="0" y2="3" stroke="#000" stroke-width="1" marker-end="url(#arrowhead)"/>
        <circle cx="0" cy="0" r="1" />
        <line x1="3" y1="0" x2="0" y2="0" stroke="#000" stroke-width="1" marker-end="url(#arrowhead)"/>
        <circle cx="3" cy="0" r="1" />
        <line x1="17" y1="20" x2="20" y2="20" stroke="#000" stroke-width="1" marker-end="url(#arrowhead)"/>
        <circle cx="17" cy="20" r="1" />
        <line x1="20" y1="20" x2="20" y2="17" stroke="#000" stroke-width="1" marker-end="url(#arrowhead)"/>
        <circle cx="20" cy="20" r="1" />
     </g>
      <animate attributeName="visibility" values="hidden; hidden; hidden; visible; hidden; hidden; hidden; hidden; hidden; hidden; hidden; hidden; hidden; hidden; hidden; hidden; hidden; hidden; hidden; hidden; hidden" dur="1s" repeatCount="indefinite" />
    </g>
    <!-- Layer 4 -->
    <g id="frame4">
       <text x="10" y="10">Layer 4</text>
       <g transform="translate(15, 20) scale(5)">
        <line x1="0" y1="20" x2="16" y2="20" stroke="#000" stroke-width="1" marker-end="url(#arrowhead)"/>
        <circle cx="0" cy="20" r="1" />
        <line x1="0" y1="0" x2="0" y2="4" stroke="#000" stroke-width="1" marker-end="url(#arrowhead)"/>
        <circle cx="0" cy="0" r="1" />
        <line x1="4" y1="0" x2="0" y2="0" stroke="#000" stroke-width="1" marker-end="url(#arrowhead)"/>
        <circle cx="4" cy="0" r="1" />
        <line x1="16" y1="20" x2="20" y2="20" stroke="#000" stroke-width="1" marker-end="url(#arrowhead)"/>
        <circle cx="16" cy="20" r="1" />
        <line x1="20" y1="0" x2="4" y2="0" stroke="#000" stroke-width="1" marker-end="url(#arrowhead)"/>
        <circle cx="20" cy="0" r="1" />
        <line x1="20" y1="20" x2="20" y2="16" stroke="#000" stroke-width="1" marker-end="url(#arrowhead)"/>
        <circle cx="20" cy="20" r="1" />
        <line x1="0" y1="4" x2="0" y2="20" stroke="#000" stroke-width="1" marker-end="url(#arrowhead)"/>
        <circle cx="0" cy="4" r="1" />
        <line x1="20" y1="16" x2="20" y2="0" stroke="#000" stroke-width="1" marker-end="url(#arrowhead)"/>
        <circle cx="20" cy="16" r="1" />
     </g>
      <animate attributeName="visibility" values="hidden; hidden; hidden; hidden; visible; hidden; hidden; hidden; hidden; hidden; hidden; hidden; hidden; hidden; hidden; hidden; hidden; hidden; hidden; hidden; hidden" dur="1s" repeatCount="indefinite" />
    </g>
    <!-- Layer 5 -->
    <g id="frame5">
       <text x="10" y="10">Layer 5</text>
       <g transform="translate(15, 20) scale(5)">
        <line x1="5" y1="0" x2="0" y2="0" stroke="#000" stroke-width="1" marker-end="url(#arrowhead)"/>
        <circle cx="5" cy="0" r="1" />
        <line x1="20" y1="20" x2="20" y2="15" stroke="#000" stroke-width="1" marker-end="url(#arrowhead)"/>
        <circle cx="20" cy="20" r="1" />
        <line x1="0" y1="5" x2="0" y2="20" stroke="#000" stroke-width="1" marker-end="url(#arrowhead)"/>
        <circle cx="0" cy="5" r="1" />
        <line x1="0" y1="0" x2="0" y2="5" stroke="#000" stroke-width="1" marker-end="url(#arrowhead)"/>
        <circle cx="0" cy="0" r="1" />
        <line x1="20" y1="15" x2="20" y2="0" stroke="#000" stroke-width="1" marker-end="url(#arrowhead)"/>
        <circle cx="20" cy="15" r="1" />
        <line x1="15" y1="20" x2="20" y2="20" stroke="#000" stroke-width="1" marker-end="url(#arrowhead)"/>
        <circle cx="15" cy="20" r="1" />
        <line x1="0" y1="20" x2="15" y2="20" stroke="#000" stroke-width="1" marker-end="url(#arrowhead)"/>
        <circle cx="0" cy="20" r="1" />
        <line x1="20" y1="0" x2="5" y2="0" stroke="#000" stroke-width="1" marker-end="url(#arrowhead)"/>
        <circle cx="20" cy="0" r="1" />
     </g>
      <animate attributeName="visibility" values="hidden; hidden; hidden; hidden; hidden; visible; hidden; hidden; hidden; hidden; hidden; hidden; hidden; hidden; hidden; hidden; hidden; hidden; hidden; hidden; hidden" dur="1s" repeatCount="indefinite" />
    </g>
    <!-- Layer 6 -->
    <g id="frame6">
       <text x="10" y="10">Layer 6</text>
       <g transform="translate(15, 20) scale(5)">
        <line x1="6" y1="0" x2="0" y2="0" stroke="#000" stroke-width="1" marker-end="url(#arrowhead)"/>
        <circle cx="6" cy="0" r="1" />
        <line x1="14" y1="20" x2="20" y2="20" stroke="#000" stroke-width="1" marker-end="url(#arrowhead)"/>
        <circle cx="14" cy="20" r="1" />
        <line x1="0" y1="0" x2="0" y2="6" stroke="#000" stroke-width="1" marker-end="url(#arrowhead)"/>
        <circle cx="0" cy="0" r="1" />
        <line x1="0" y1="20" x2="14" y2="20" stroke="#000" stroke-width="1" marker-end="url(#arrowhead)"/>
        <circle cx="0" cy="20" r="1" />
        <line x1="20" y1="0" x2="6" y2="0" stroke="#000" stroke-width="1" marker-end="url(#arrowhead)"/>
        <circle cx="20" cy="0" r="1" />
        <line x1="20" y1="14" x2="20" y2="0" stroke="#000" stroke-width="1" marker-end="url(#arrowhead)"/>
        <circle cx="20" cy="14" r="1" />
        <line x1="20" y1="20" x2="20" y2="14" stroke="#000" stroke-width="1" marker-end="url(#arrowhead)"/>
        <circle cx="20" cy="20" r="1" />
        <line x1="0" y1="6" x2="0" y2="20" stroke="#000" stroke-width="1" marker-end="url(#arrowhead)"/>
        <circle cx="0" cy="6" r="1" />
     </g>
      <animate attributeName="visibility" values="hidden; hidden; hidden; hidden; hidden; hidden; visible; hidden; hidden; hidden; hidden; hidden; hidden; hidden; hidden; hidden; hidden; hidden; hidden; hidden; hidden" dur="1s" repeatCount="indefinite" />
    </g>
    <!-- Layer 7 -->
    <g id="frame7">
       <text x="10" y="10">Layer 7</text>
       <g transform="translate(15, 20) scale(5)">
        <line x1="0" y1="7" x2="0" y2="20" stroke="#000" stroke-width="1" marker-end="url(#arrowhead)"/>
        <circle cx="0" cy="7" r="1" />
        <line x1="20" y1="13" x2="20" y2="0" stroke="#000" stroke-width="1" marker-end="url(#arrowhead)"/>
        <circle cx="20" cy="13" r="1" />
        <line x1="20" y1="0" x2="7" y2="0" stroke="#000" stroke-width="1" marker-end="url(#arrowhead)"/>
        <circle cx="20" cy="0" r="1" />
        <line x1="20" y1="20" x2="20" y2="13" stroke="#000" stroke-width="1" marker-end="url(#arrowhead)"/>
        <circle cx="20" cy="20" r="1" />
        <line x1="13" y1="20" x2="20" y2="20" stroke="#000" stroke-width="1" marker-end="url(#arrowhead)"/>
        <circle cx="13" cy="20" r="1" />
        <line x1="0" y1="0" x2="0" y2="7" stroke="#000" stroke-width="1" marker-end="url(#arrowhead)"/>
        <circle cx="0" cy="0" r="1" />
        <line x1="0" y1="20" x2="13" y2="20" stroke="#000" stroke-width="1" marker-end="url(#arrowhead)"/>
        <circle cx="0" cy="20" r="1" />
        <line x1="7" y1="0" x2="0" y2="0" stroke="#000" stroke-width="1" marker-end="url(#arrowhead)"/>
        <circle cx="7" cy="0" r="1" />
     </g>
      <animate attributeName="visibility" values="hidden; hidden; hidden; hidden; hidden; hidden; hidden; visible; hidden; hidden; hidden; hidden; hidden; hidden; hidden; hidden; hidden; hidden; hidden; hidden; hidden" dur="1s" repeatCount="indefinite" />
    </g>
    <!-- Layer 8 -->
    <g id="frame8">
       <text x="10" y="10">Layer 8</text>
       <g transform="translate(15, 20) scale(5)">
        <line x1="0" y1="0" x2="0" y2="8" stroke="#000" stroke-width="1" marker-end="url(#arrowhead)"/>
        <circle cx="0" cy="0" r="1" />
        <line x1="8" y1="0" x2="0" y2="0" stroke="#000" stroke-width="1" marker-end="url(#arrowhead)"/>
        <circle cx="8" cy="0" r="1" />
        <line x1="20" y1="0" x2="8" y2="0" stroke="#000" stroke-width="1" marker-end="url(#arrowhead)"/>
        <circle cx="20" cy="0" r="1" />
        <line x1="12" y1="20" x2="20" y2="20" stroke="#000" stroke-width="1" marker-end="url(#arrowhead)"/>
        <circle cx="12" cy="20" r="1" />
        <line x1="0" y1="20" x2="12" y2="20" stroke="#000" stroke-width="1" marker-end="url(#arrowhead)"/>
        <circle cx="0" cy="20" r="1" />
        <line x1="0" y1="8" x2="0" y2="20" stroke="#000" stroke-width="1" marker-end="url(#arrowhead)"/>
        <circle cx="0" cy="8" r="1" />
        <line x1="20" y1="12" x2="20" y2="0" stroke="#000" stroke-width="1" marker-end="url(#arrowhead)"/>
        <circle cx="20" cy="12" r="1" />
        <line x1="20" y1="20" x2="20" y2="12" stroke="#000" stroke-width="1" marker-end="url(#arrowhead)"/>
        <circle cx="20" cy="20" r="1" />
     </g>
      <animate attributeName="visibility" values="hidden; hidden; hidden; hidden; hidden; hidden; hidden; hidden; visible; hidden; hidden; hidden; hidden; hidden; hidden; hidden; hidden; hidden; hidden; hidden; hidden" dur="1s" repeatCount="indefinite" />
    </g>
    <!-- Layer 9 -->
    <g id="frame9">
       <text x="10" y="10">Layer 9</text>
       <g transform="translate(15, 20) scale(5)">
        <line x1="20" y1="11" x2="20" y2="0" stroke="#000" stroke-width="1" marker-end="url(#arrowhead)"/>
        <circle cx="20" cy="11" r="1" />
        <line x1="11" y1="20" x2="20" y2="20" stroke="#000" stroke-width="1" marker-end="url(#arrowhead)"/>
        <circle cx="11" cy="20" r="1" />
        <line x1="9" y1="0" x2="0" y2="0" stroke="#000" stroke-width="1" marker-end="url(#arrowhead)"/>
        <circle cx="9" cy="0" r="1" />
        <line x1="0" y1="0" x2="0" y2="9" stroke="#000" stroke-width="1" marker-end="url(#arrowhead)"/>
        <circle cx="0" cy="0" r="1" />
        <line x1="20" y1="20" x2="20" y2="11" stroke="#000" stroke-width="1" marker-end="url(#arrowhead)"/>
        <circle cx="20" cy="20" r="1" />
        <line x1="20" y1="0" x2="9" y2="0" stroke="#000" stroke-width="1" marker-end="url(#arrowhead)"/>
        <circle cx="20" cy="0" r="1" />
        <line x1="0" y1="20" x2="11" y2="20" stroke="#000" stroke-width="1" marker-end="url(#arrowhead)"/>
        <circle cx="0" cy="20" r="1" />
        <line x1="0" y1="9" x2="0" y2="20" stroke="#000" stroke-width="1" marker-end="url(#arrowhead)"/>
        <circle cx="0" cy="9" r="1" />
     </g>
      <animate attributeName="visibility" values="hidden; hidden; hidden; hidden; hidden; hidden; hidden; hidden; hidden; visible; hidden; hidden; hidden; hidden; hidden; hidden; hidden; hidden; hidden; hidden; hidden" dur="1s" repeatCount="indefinite" />
    </g>
    <!-- Layer 10 -->
    <g id="frame10">
       <text x="10" y="10">Layer 10</text>
       <g transform="translate(15, 20) scale(5)">
        <line x1="10" y1="0" x2="0" y2="0" stroke="#000" stroke-width="1" marker-end="url(#arrowhead)"/>
        <circle cx="10" cy="0" r="1" />
        <line x1="20" y1="10" x2="20" y2="0" stroke="#000" stroke-width="1" marker-end="url(#arrowhead)"/>
        <circle cx="20" cy="10" r="1" />
        <line x1="0" y1="10" x2="0" y2="20" stroke="#000" stroke-width="1" marker-end="url(#arrowhead)"/>
        <circle cx="0" cy="10" r="1" />
        <line x1="20" y1="0" x2="10" y2="0" stroke="#000" stroke-width="1" marker-end="url(#arrowhead)"/>
        <circle cx="20" cy="0" r="1" />
        <line x1="10" y1="20" x2="20" y2="20" stroke="#000" stroke-width="1" marker-end="url(#arrowhead)"/>
        <circle cx="10" cy="20" r="1" />
        <line x1="20" y1="20" x2="20" y2="10" stroke="#000" stroke-width="1" marker-end="url(#arrowhead)"/>
        <circle cx="20" cy="20" r="1" />
        <line x1="0" y1="0" x2="0" y2="10" stroke="#000" stroke-width="1" marker-end="url(#arrowhead)"/>
        <circle cx="0" cy="0" r="1" />
        <line x1="0" y1="20" x2="10" y2="20" stroke="#000" stroke-width="1" marker-end="url(#arrowhead)"/>
        <circle cx="0" cy="20" r="1" />
     </g>
      <animate attributeName="visibility" values="hidden; hidden; hidden; hidden; hidden; hidden; hidden; hidden; hidden; hidden; visible; hidden; hidden; hidden; hidden; hidden; hidden; hidden; hidden; hidden; hidden" dur="1s" repeatCount="indefinite" />
    </g>
    <!-- Layer 11 -->
    <g id="frame11">
       <text x="10" y="10">Layer 11</text>
       <g transform="translate(15, 20) scale(5)">
        <line x1="11" y1="0" x2="0" y2="0" stroke="#000" stroke-width="1" marker-end="url(#arrowhead)"/>
        <circle cx="11" cy="0" r="1" />
        <line x1="0" y1="11" x2="0" y2="20" stroke="#000" stroke-width="1" marker-end="url(#arrowhead)"/>
        <circle cx="0" cy="11" r="1" />
        <line x1="0" y1="20" x2="9" y2="20" stroke="#000" stroke-width="1" marker-end="url(#arrowhead)"/>
        <circle cx="0" cy="20" r="1" />
        <line x1="20" y1="0" x2="11" y2="0" stroke="#000" stroke-width="1" marker-end="url(#arrowhead)"/>
        <circle cx="20" cy="0" r="1" />
        <line x1="20" y1="9" x2="20" y2="0" stroke="#000" stroke-width="1" marker-end="url(#arrowhead)"/>
        <circle cx="20" cy="9" r="1" />
        <line x1="20" y1="20" x2="20" y2="9" stroke="#000" stroke-width="1" marker-end="url(#arrowhead)"/>
        <circle cx="20" cy="20" r="1" />
        <line x1="0" y1="0" x2="0" y2="11" stroke="#000" stroke-width="1" marker-end="url(#arrowhead)"/>
        <circle cx="0" cy="0" r="1" />
        <line x1="9" y1="20" x2="20" y2="20" stroke="#000" stroke-width="1" marker-end="url(#arrowhead)"/>
        <circle cx="9" cy="20" r="1" />
     </g>
      <animate attributeName="visibility" values="hidden; hidden; hidden; hidden; hidden; hidden; hidden; hidden; hidden; hidden; hidden; visible; hidden; hidden; hidden; hidden; hidden; hidden; hidden; hidden; hidden" dur="1s" repeatCount="indefinite" />
    </g>
    <!-- Layer 12 -->
    <g id="frame12">
       <text x="10" y="10">Layer 12</text>
       <g transform="translate(15, 20) scale(5)">
        <line x1="0" y1="12" x2="0" y2="20" stroke="#000" stroke-width="1" marker-end="url(#arrowhead)"/>
        <circle cx="0" cy="12" r="1" />
        <line x1="20" y1="8" x2="20" y2="0" stroke="#000" stroke-width="1" marker-end="url(#arrowhead)"/>
        <circle cx="20" cy="8" r="1" />
        <line x1="12" y1="0" x2="0" y2="0" stroke="#000" stroke-width="1" marker-end="url(#arrowhead)"/>
        <circle cx="12" cy="0" r="1" />
        <line x1="8" y1="20" x2="20" y2="20" stroke="#000" stroke-width="1" marker-end="url(#arrowhead)"/>
        <circle cx="8" cy="20" r="1" />
        <line x1="0" y1="20" x2="8" y2="20" stroke="#000" stroke-width="1" marker-end="url(#arrowhead)"/>
        <circle cx="0" cy="20" r="1" />
        <line x1="0" y1="0" x2="0" y2="12" stroke="#000" stroke-width="1" marker-end="url(#arrowhead)"/>
        <circle cx="0" cy="0" r="1" />
        <line x1="20" y1="20" x2="20" y2="8" stroke="#000" stroke-width="1" marker-end="url(#arrowhead)"/>
        <circle cx="20" cy="20" r="1" />
        <line x1="20" y1="0" x2="12" y2="0" stroke="#000" stroke-width="1" marker-end="url(#arrowhead)"/>
        <circle cx="20" cy="0" r="1" />
     </g>
      <animate attributeName="visibility" values="hidden; hidden; hidden; hidden; hidden; hidden; hidden; hidden; hidden; hidden; hidden; hidden; visible; hidden; hidden; hidden; hidden; hidden; hidden; hidden; hidden" dur="1s" repeatCount="indefinite" />
    </g>
    <!-- Layer 13 -->
    <g id="frame13">
       <text x="10" y="10">Layer 13</text>
       <g transform="translate(15, 20) scale(5)">
        <line x1="0" y1="0" x2="0" y2="13" stroke="#000" stroke-width="1" marker-end="url(#arrowhead)"/>
        <circle cx="0" cy="0" r="1" />
        <line x1="20" y1="0" x2="13" y2="0" stroke="#000" stroke-width="1" marker-end="url(#arrowhead)"/>
        <circle cx="20" cy="0" r="1" />
        <line x1="20" y1="7" x2="20" y2="0" stroke="#000" stroke-width="1" marker-end="url(#arrowhead)"/>
        <circle cx="20" cy="7" r="1" />
        <line x1="0" y1="20" x2="7" y2="20" stroke="#000" stroke-width="1" marker-end="url(#arrowhead)"/>
        <circle cx="0" cy="20" r="1" />
        <line x1="13" y1="0" x2="0" y2="0" stroke="#000" stroke-width="1" marker-end="url(#arrowhead)"/>
        <circle cx="13" cy="0" r="1" />
        <line x1="0" y1="13" x2="0" y2="20" stroke="#000" stroke-width="1" marker-end="url(#arrowhead)"/>
        <circle cx="0" cy="13" r="1" />
        <line x1="20" y1="20" x2="20" y2="7" stroke="#000" stroke-width="1" marker-end="url(#arrowhead)"/>
        <circle cx="20" cy="20" r="1" />
        <line x1="7" y1="20" x2="20" y2="20" stroke="#000" stroke-width="1" marker-end="url(#arrowhead)"/>
        <circle cx="7" cy="20" r="1" />
     </g>
      <animate attributeName="visibility" values="hidden; hidden; hidden; hidden; hidden; hidden; hidden; hidden; hidden; hidden; hidden; hidden; hidden; visible; hidden; hidden; hidden; hidden; hidden; hidden; hidden" dur="1s" repeatCount="indefinite" />
    </g>
    <!-- Layer 14 -->
    <g id="frame14">
       <text x="10" y="10">Layer 14</text>
       <g transform="translate(15, 20) scale(5)">
        <line x1="0" y1="0" x2="0" y2="14" stroke="#000" stroke-width="1" marker-end="url(#arrowhead)"/>
        <circle cx="0" cy="0" r="1" />
        <line x1="0" y1="20" x2="6" y2="20" stroke="#000" stroke-width="1" marker-end="url(#arrowhead)"/>
        <circle cx="0" cy="20" r="1" />
        <line x1="14" y1="0" x2="0" y2="0" stroke="#000" stroke-width="1" marker-end="url(#arrowhead)"/>
        <circle cx="14" cy="0" r="1" />
        <line x1="20" y1="20" x2="20" y2="6" stroke="#000" stroke-width="1" marker-end="url(#arrowhead)"/>
        <circle cx="20" cy="20" r="1" />
        <line x1="20" y1="0" x2="14" y2="0" stroke="#000" stroke-width="1" marker-end="url(#arrowhead)"/>
        <circle cx="20" cy="0" r="1" />
        <line x1="0" y1="14" x2="0" y2="20" stroke="#000" stroke-width="1" marker-end="url(#arrowhead)"/>
        <circle cx="0" cy="14" r="1" />
        <line x1="20" y1="6" x2="20" y2="0" stroke="#000" stroke-width="1" marker-end="url(#arrowhead)"/>
        <circle cx="20" cy="6" r="1" />
        <line x1="6" y1="20" x2="20" y2="20" stroke="#000" stroke-width="1" marker-end="url(#arrowhead)"/>
        <circle cx="6" cy="20" r="1" />
     </g>
      <animate attributeName="visibility" values="hidden; hidden; hidden; hidden; hidden; hidden; hidden; hidden; hidden; hidden; hidden; hidden; hidden; hidden; visible; hidden; hidden; hidden; hidden; hidden; hidden" dur="1s" repeatCount="indefinite" />
    </g>
    <!-- Layer 15 -->
    <g id="frame15">
       <text x="10" y="10">Layer 15</text>
       <g transform="translate(15, 20) scale(5)">
        <line x1="20" y1="0" x2="15" y2="0" stroke="#000" stroke-width="1" marker-end="url(#arrowhead)"/>
        <circle cx="20" cy="0" r="1" />
        <line x1="20" y1="20" x2="20" y2="5" stroke="#000" stroke-width="1" marker-end="url(#arrowhead)"/>
        <circle cx="20" cy="20" r="1" />
        <line x1="5" y1="20" x2="20" y2="20" stroke="#000" stroke-width="1" marker-end="url(#arrowhead)"/>
        <circle cx="5" cy="20" r="1" />
        <line x1="0" y1="20" x2="5" y2="20" stroke="#000" stroke-width="1" marker-end="url(#arrowhead)"/>
        <circle cx="0" cy="20" r="1" />
        <line x1="0" y1="15" x2="0" y2="20" stroke="#000" stroke-width="1" marker-end="url(#arrowhead)"/>
        <circle cx="0" cy="15" r="1" />
        <line x1="20" y1="5" x2="20" y2="0" stroke="#000" stroke-width="1" marker-end="url(#arrowhead)"/>
        <circle cx="20" cy="5" r="1" />
        <line x1="0" y1="0" x2="0" y2="15" stroke="#000" stroke-width="1" marker-end="url(#arrowhead)"/>
        <circle cx="0" cy="0" r="1" />
        <line x1="15" y1="0" x2="0" y2="0" stroke="#000" stroke-width="1" marker-end="url(#arrowhead)"/>
        <circle cx="15" cy="0" r="1" />
     </g>
      <animate attributeName="visibility" values="hidden; hidden; hidden; hidden; hidden; hidden; hidden; hidden; hidden; hidden; hidden; hidden; hidden; hidden; hidden; visible; hidden; hidden; hidden; hidden; hidden" dur="1s" repeatCount="indefinite" />
    </g>
    <!-- Layer 16 -->
    <g id="frame16">
       <text x="10" y="10">Layer 16</text>
       <g transform="translate(15, 20) scale(5)">
        <line x1="16" y1="0" x2="0" y2="0" stroke="#000" stroke-width="1" marker-end="url(#arrowhead)"/>
        <circle cx="16" cy="0" r="1" />
        <line x1="20" y1="20" x2="20" y2="4" stroke="#000" stroke-width="1" marker-end="url(#arrowhead)"/>
        <circle cx="20" cy="20" r="1" />
        <line x1="0" y1="16" x2="0" y2="20" stroke="#000" stroke-width="1" marker-end="url(#arrowhead)"/>
        <circle cx="0" cy="16" r="1" />
        <line x1="0" y1="0" x2="0" y2="16" stroke="#000" stroke-width="1" marker-end="url(#arrowhead)"/>
        <circle cx="0" cy="0" r="1" />
        <line x1="4" y1="20" x2="20" y2="20" stroke="#000" stroke-width="1" marker-end="url(#arrowhead)"/>
        <circle cx="4" cy="20" r="1" />
        <line x1="20" y1="0" x2="16" y2="0" stroke="#000" stroke-width="1" marker-end="url(#arrowhead)"/>
        <circle cx="20" cy="0" r="1" />
        <line x1="0" y1="20" x2="4" y2="20" stroke="#000" stroke-width="1" marker-end="url(#arrowhead)"/>
        <circle cx="0" cy="20" r="1" />
        <line x1="20" y1="4" x2="20" y2="0" stroke="#000" stroke-width="1" marker-end="url(#arrowhead)"/>
        <circle cx="20" cy="4" r="1" />
     </g>
      <animate attributeName="visibility" values="hidden; hidden; hidden; hidden; hidden; hidden; hidden; hidden; hidden; hidden; hidden; hidden; hidden; hidden; hidden; hidden; visible; hidden; hidden; hidden; hidden" dur="1s" repeatCount="indefinite" />
    </g>
    <!-- Layer 17 -->
    <g id="frame17">
       <text x="10" y="10">Layer 17</text>
       <g transform="translate(15, 20) scale(5)">
        <line x1="17" y1="0" x2="0" y2="0" stroke="#000" stroke-width="1" marker-end="url(#arrowhead)"/>
        <circle cx="17" cy="0" r="1" />
        <line x1="0" y1="17" x2="0" y2="20" stroke="#000" stroke-width="1" marker-end="url(#arrowhead)"/>
        <circle cx="0" cy="17" r="1" />
        <line x1="20" y1="3" x2="20" y2="0" stroke="#000" stroke-width="1" marker-end="url(#arrowhead)"/>
        <circle cx="20" cy="3" r="1" />
        <line x1="3" y1="20" x2="20" y2="20" stroke="#000" stroke-width="1" marker-end="url(#arrowhead)"/>
        <circle cx="3" cy="20" r="1" />
        <line x1="0" y1="0" x2="0" y2="17" stroke="#000" stroke-width="1" marker-end="url(#arrowhead)"/>
        <circle cx="0" cy="0" r="1" />
        <line x1="20" y1="0" x2="17" y2="0" stroke="#000" stroke-width="1" marker-end="url(#arrowhead)"/>
        <circle cx="20" cy="0" r="1" />
        <line x1="0" y1="20" x2="3" y2="20" stroke="#000" stroke-width="1" marker-end="url(#arrowhead)"/>
        <circle cx="0" cy="20" r="1" />
        <line x1="20" y1="20" x2="20" y2="3" stroke="#000" stroke-width="1" marker-end="url(#arrowhead)"/>
        <circle cx="20" cy="20" r="1" />
     </g>
      <animate attributeName="visibility" values="hidden; hidden; hidden; hidden; hidden; hidden; hidden; hidden; hidden; hidden; hidden; hidden; hidden; hidden; hidden; hidden; hidden; visible; hidden; hidden; hidden" dur="1s" repeatCount="indefinite" />
    </g>
    <!-- Layer 18 -->
    <g id="frame18">
       <text x="10" y="10">Layer 18</text>
       <g transform="translate(15, 20) scale(5)">
        <line x1="20" y1="20" x2="20" y2="2" stroke="#000" stroke-width="1" marker-end="url(#arrowhead)"/>
        <circle cx="20" cy="20" r="1" />
        <line x1="0" y1="20" x2="2" y2="20" stroke="#000" stroke-width="1" marker-end="url(#arrowhead)"/>
        <circle cx="0" cy="20" r="1" />
        <line x1="20" y1="0" x2="18" y2="0" stroke="#000" stroke-width="1" marker-end="url(#arrowhead)"/>
        <circle cx="20" cy="0" r="1" />
        <line x1="18" y1="0" x2="0" y2="0" stroke="#000" stroke-width="1" marker-end="url(#arrowhead)"/>
        <circle cx="18" cy="0" r="1" />
        <line x1="20" y1="2" x2="20" y2="0" stroke="#000" stroke-width="1" marker-end="url(#arrowhead)"/>
        <circle cx="20" cy="2" r="1" />
        <line x1="2" y1="20" x2="20" y2="20" stroke="#000" stroke-width="1" marker-end="url(#arrowhead)"/>
        <circle cx="2" cy="20" r="1" />
        <line x1="0" y1="18" x2="0" y2="20" stroke="#000" stroke-width="1" marker-end="url(#arrowhead)"/>
        <circle cx="0" cy="18" r="1" />
        <line x1="0" y1="0" x2="0" y2="18" stroke="#000" stroke-width="1" marker-end="url(#arrowhead)"/>
        <circle cx="0" cy="0" r="1" />
     </g>
      <animate attributeName="visibility" values="hidden; hidden; hidden; hidden; hidden; hidden; hidden; hidden; hidden; hidden; hidden; hidden; hidden; hidden; hidden; hidden; hidden; hidden; visible; hidden; hidden" dur="1s" repeatCount="indefinite" />
    </g>
    <!-- Layer 19 -->
    <g id="frame19">
       <text x="10" y="10">Layer 19</text>
       <g transform="translate(15, 20) scale(5)">
        <line x1="0" y1="19" x2="0" y2="20" stroke="#000" stroke-width="1" marker-end="url(#arrowhead)"/>
        <circle cx="0" cy="19" r="1" />
        <line x1="20" y1="1" x2="20" y2="0" stroke="#000" stroke-width="1" marker-end="url(#arrowhead)"/>
        <circle cx="20" cy="1" r="1" />
        <line x1="20" y1="0" x2="19" y2="0" stroke="#000" stroke-width="1" marker-end="url(#arrowhead)"/>
        <circle cx="20" cy="0" r="1" />
        <line x1="0" y1="20" x2="1" y2="20" stroke="#000" stroke-width="1" marker-end="url(#arrowhead)"/>
        <circle cx="0" cy="20" r="1" />
        <line x1="19" y1="0" x2="0" y2="0" stroke="#000" stroke-width="1" marker-end="url(#arrowhead)"/>
        <circle cx="19" cy="0" r="1" />
        <line x1="20" y1="20" x2="20" y2="1" stroke="#000" stroke-width="1" marker-end="url(#arrowhead)"/>
        <circle cx="20" cy="20" r="1" />
        <line x1="1" y1="20" x2="20" y2="20" stroke="#000" stroke-width="1" marker-end="url(#arrowhead)"/>
        <circle cx="1" cy="20" r="1" />
        <line x1="0" y1="0" x2="0" y2="19" stroke="#000" stroke-width="1" marker-end="url(#arrowhead)"/>
        <circle cx="0" cy="0" r="1" />
     </g>
      <animate attributeName="visibility" values="hidden; hidden; hidden; hidden; hidden; hidden; hidden; hidden; hidden; hidden; hidden; hidden; hidden; hidden; hidden; hidden; hidden; hidden; hidden; visible; hidden" dur="1s" repeatCount="indefinite" />
    </g>
    <!-- Layer 20 -->
    <g id="frame20">
       <text x="10" y="10">Layer 20</text>
       <g transform="translate(15, 20) scale(5)">
        <line x1="0" y1="20" x2="20" y2="20" stroke="#000" stroke-width="1" marker-end="url(#arrowhead)"/>
        <circle cx="0" cy="20" r="1" />
        <line x1="20" y1="20" x2="20" y2="0" stroke="#000" stroke-width="1" marker-end="url(#arrowhead)"/>
        <circle cx="20" cy="20" r="1" />
        <line x1="0" y1="0" x2="0" y2="20" stroke="#000" stroke-width="1" marker-end="url(#arrowhead)"/>
        <circle cx="0" cy="0" r="1" />
        <line x1="20" y1="0" x2="0" y2="0" stroke="#000" stroke-width="1" marker-end="url(#arrowhead)"/>
        <circle cx="20" cy="0" r="1" />
     </g>
      <animate attributeName="visibility" values="hidden; hidden; hidden; hidden; hidden; hidden; hidden; hidden; hidden; hidden; hidden; hidden; hidden; hidden; hidden; hidden; hidden; hidden; hidden; hidden; visible" dur="1s" repeatCount="indefinite" />
    </g>
  </g>
</svg>
